<?xml version="1.0" encoding="UTF-8"?>
<svg xmlns="http://www.w3.org/2000/svg" width="699.999" height="128.158" viewBox="0 0 699.999 128.158">
  <defs>
    <style>
      .cls-1 {
        fill: #03111b;
      }

      .cls-2 {
        fill: #177dc9;
      }
    </style>
  </defs>
  <g id="logo-dark" transform="translate(-610.001 -476)">
    <path id="black" class="cls-1" d="M15225.994,9710.264a42.941,42.941,0,0,1-16.914-16.234,46.217,46.217,0,0,1-6.064-23.837,52.535,52.535,0,0,1,3.415-19.309,45.664,45.664,0,0,1,9.567-15.123,42.556,42.556,0,0,1,14.608-9.911,47.471,47.471,0,0,1,18.363-3.5,40.147,40.147,0,0,1,16.659,3.418,41.9,41.9,0,0,1,13.241,9.313,40.027,40.027,0,0,1,8.625,14.01,48.335,48.335,0,0,1,2.82,17.688l-.171,7.521h-66.55a28.058,28.058,0,0,0,3.253,9.567,25.26,25.26,0,0,0,10.507,10.082,33.651,33.651,0,0,0,15.887,3.588,32.7,32.7,0,0,0,11.7-2.047,40.213,40.213,0,0,0,11.53-7.351l10.251,14.354a46.016,46.016,0,0,1-10.506,7.266,62.391,62.391,0,0,1-12.388,4.7,50.2,50.2,0,0,1-12.812,1.707Q15236.842,9716.158,15225.994,9710.264Zm43.992-50.492v-1.027a18.468,18.468,0,0,0-3.419-9.144,20.554,20.554,0,0,0-7.432-6.322,21.684,21.684,0,0,0-9.992-2.307,29.282,29.282,0,0,0-14.18,3.164,20.482,20.482,0,0,0-8.8,9.313,27.636,27.636,0,0,0-2.128,6.323Zm-248.151,50.492a42.931,42.931,0,0,1-16.91-16.234,46.21,46.21,0,0,1-6.068-23.837,52.475,52.475,0,0,1,3.418-19.309,45.62,45.62,0,0,1,9.568-15.123,42.519,42.519,0,0,1,14.608-9.911,47.466,47.466,0,0,1,18.362-3.5,40.165,40.165,0,0,1,16.66,3.418,41.886,41.886,0,0,1,13.237,9.313,40.035,40.035,0,0,1,8.629,14.01,48.314,48.314,0,0,1,2.819,17.688l-.174,7.521h-66.547a28.013,28.013,0,0,0,3.25,9.567,25.265,25.265,0,0,0,10.511,10.082,33.651,33.651,0,0,0,15.887,3.588,32.7,32.7,0,0,0,11.7-2.047,40.249,40.249,0,0,0,11.529-7.351l10.252,14.354a46.022,46.022,0,0,1-10.507,7.266,62.369,62.369,0,0,1-12.388,4.7,50.188,50.188,0,0,1-12.812,1.707Q15032.687,9716.158,15021.835,9710.264Zm43.991-50.492v-1.027a18.434,18.434,0,0,0-3.414-9.144,20.6,20.6,0,0,0-7.432-6.322,21.7,21.7,0,0,0-10-2.307,29.308,29.308,0,0,0-14.18,3.164,20.526,20.526,0,0,0-8.8,9.313,27.588,27.588,0,0,0-2.127,6.323Zm-155.892,50.322a43.16,43.16,0,0,1-15.033-16.574,50.971,50.971,0,0,1-5.555-24.181,51.765,51.765,0,0,1,5.47-24.095,42.391,42.391,0,0,1,14.948-16.66,40.382,40.382,0,0,1,34-4.017,41.089,41.089,0,0,1,10.935,5.555,33.231,33.231,0,0,1,5.041,4.411V9588h21.013v126.451h-20.329l-.277-11.355a31.144,31.144,0,0,1-6.3,5.886,39.07,39.07,0,0,1-10.336,5.214,37.061,37.061,0,0,1-11.959,1.963A39.232,39.232,0,0,1,14909.935,9710.094Zm12.473-66.047a26.257,26.257,0,0,0-8.8,10.255,33.209,33.209,0,0,0-3.248,15.037,33.775,33.775,0,0,0,3.248,15.122,25.453,25.453,0,0,0,8.8,10.252,24.936,24.936,0,0,0,26.053,0,24.656,24.656,0,0,0,8.8-10.252,34.566,34.566,0,0,0,3.159-15.122,33.986,33.986,0,0,0-3.159-15.037,25.405,25.405,0,0,0-8.8-10.255,24.451,24.451,0,0,0-26.053,0Zm-116.771,66.047a44.169,44.169,0,0,1-16.659-16.659,47.658,47.658,0,0,1-6.064-24.1,49.494,49.494,0,0,1,6.153-24.095,42.925,42.925,0,0,1,16.57-16.575,49.473,49.473,0,0,1,24.087-6.152,47.256,47.256,0,0,1,23.918,6.067,44.172,44.172,0,0,1,16.659,16.66,50.9,50.9,0,0,1,0,48.19,44.169,44.169,0,0,1-16.659,16.659,50.531,50.531,0,0,1-48,0Zm10.847-65.363a24.173,24.173,0,0,0-9.14,10.081,34.14,34.14,0,0,0,0,29.051,24.135,24.135,0,0,0,9.14,10.082,26.162,26.162,0,0,0,13.24,3.762,24.524,24.524,0,0,0,13.241-3.677,24.845,24.845,0,0,0,9.14-10.082,30.37,30.37,0,0,0,3.074-14.608,29.807,29.807,0,0,0-3.159-14.612,25.681,25.681,0,0,0-9.14-10.081,24.094,24.094,0,0,0-13.156-3.674A26.2,26.2,0,0,0,14816.482,9644.73Zm-103.785,65.278a44.026,44.026,0,0,1-15.888-16.748,52.17,52.17,0,0,1,0-47.847,44.039,44.039,0,0,1,15.888-16.745,42.737,42.737,0,0,1,22.724-6.152,50.935,50.935,0,0,1,21.951,4.7,36.2,36.2,0,0,1,15.288,12.731l-11.444,14.01a29.276,29.276,0,0,0-6.493-6.493,34.934,34.934,0,0,0-8.456-4.612,25.482,25.482,0,0,0-22.38,1.967,26.063,26.063,0,0,0-9.309,10.081,30.189,30.189,0,0,0-3.419,14.438,29.1,29.1,0,0,0,3.5,14.354,27.333,27.333,0,0,0,9.479,10.082,24.519,24.519,0,0,0,13.326,3.758,25.875,25.875,0,0,0,8.714-1.452,32.244,32.244,0,0,0,7.946-4.187,34.7,34.7,0,0,0,7.088-6.833l11.444,14.01q-5.637,7.521-15.887,12.307a49.964,49.964,0,0,1-21.353,4.782A42.735,42.735,0,0,1,14712.7,9710.009Zm655.3,5.407-21.947-27.992,11.468-16.064c.031-.065.1-.132.132-.2.131-.231.228-.494.328-.723a3.594,3.594,0,0,0,.162-1.02l32.855,46Zm-203.766-.965v-53.486a30.36,30.36,0,0,0-1.881-11.534,12.9,12.9,0,0,0-5.81-6.663,17.491,17.491,0,0,0-9.563-1.8,24.525,24.525,0,0,0-8.544,1.452,19.525,19.525,0,0,0-11.19,10.256,17.859,17.859,0,0,0-1.622,7.6v54.17h-20.843V9624.4h20.329l.241,12.956a31.836,31.836,0,0,1,2.918-3.474,38.644,38.644,0,0,1,11.7-8.2,33.374,33.374,0,0,1,14.18-3.163q10.25,0,17.169,4.1a24.942,24.942,0,0,1,10.337,12.3q3.419,8.2,3.418,20.507v55.023Zm167.627-45.031-32.855-45.992h23l21.356,29.9,11.5,16.1Z" transform="translate(-14081 -9112)"></path>
    <path id="blue" class="cls-2" d="M69,0,47.084,30.678,36.144,45.986H59.137L91.99,0ZM0,91.994H26.284L45.637,64.921,33.476,47.927a.465.465,0,0,0-.13-.187A7.789,7.789,0,0,1,33,46.951a3.911,3.911,0,0,1-.144-.893v-.072Z" transform="translate(1310 603.417) rotate(180)"></path>
  </g>
</svg>
